#!OML:ASF H:\ManfredETheater\Project 1\Capture day 1\Session 1\subject.ASF
:FULLY-SPECIFIED
:DEGREES
197
root 0.770255 17.878 -14.9474 -172.497 -5.76219 -181.309
lowerback 3.07593 -0.0820399 -4.21429
upperback -3.64875 -0.368429 1.32909
thorax -5.4889 -0.0175241 3.78314
lowerneck -15.0313 -2.41934 -3.26261
upperneck 9.52958 -3.23016 4.76302
head 5.4576 -1.36304 1.7362
rclavicle -1.6437e-014 3.97569e-016
rhumerus -35.1745 -2.39538 -87.235
rradius 33.9151
rwrist 6.51151
rhand -19.162 -4.69007
rfingers 7.12502
rthumb 7.14881 -34.5493
lclavicle -1.6437e-014 3.97569e-016
lhumerus -40.4774 13.7651 79.0739
lradius 25.6245
lwrist -17.8057
lhand -11.4256 8.24891
lfingers 7.12502
lthumb 14.6104 37.7143
rfemur -17.5833 1.86096 21.9227
rtibia 33.7974
rfoot -17.1449 -15.9303
rtoes -8.79418
lfemur -20.8987 -4.08046 -23.3616
ltibia 38.9586
lfoot -21.1065 -6.40266
ltoes 10.209
198
root 0.76806 17.8761 -14.9767 -172.43 -5.77082 -181.37
lowerback 3.06842 -0.0863951 -4.27449
upperback -3.65624 -0.377752 1.33213
thorax -5.49174 -0.0195915 3.82106
lowerneck -15.0588 -2.37586 -3.21294
upperneck 9.51314 -3.18799 4.8068
head 5.4553 -1.33782 1.74567
rclavicle 7.1811e-015 1.98785e-015
rhumerus -35.1782 -2.82387 -86.9684
rradius 33.2019
rwrist 7.22121
rhand -18.9135 -4.8686
rfingers 7.12502
rthumb 7.38866 -34.7196
lclavicle 7.1811e-015 1.98785e-015
lhumerus -40.369 13.4141 79.4235
lradius 26.0187
lwrist -17.2458
lhand -11.5448 8.27156
lfingers 7.12502
lthumb 14.4956 37.7452
rfemur -17.5548 1.78527 21.8567
rtibia 33.83
rfoot -17.2711 -15.8849
rtoes -8.87793
lfemur -20.8449 -4.02904 -23.428
ltibia 38.9383
lfoot -21.1193 -6.49811
ltoes 10.3916
199
root 0.765896 17.8746 -15.0058 -172.365 -5.79233 -181.43
lowerback 3.06224 -0.0947659 -4.32394
upperback -3.66121 -0.391727 1.33465
thorax -5.49218 -0.0244576 3.85271
lowerneck -15.1008 -2.33504 -3.1661
upperneck 9.51529 -3.14915 4.85006
head 5.46141 -1.31401 1.75501
rclavicle 6.88913e-015 -7.95139e-016
rhumerus -35.2047 -3.32327 -86.67
rradius 32.5461
rwrist 7.86075
rhand -18.6852 -5.06196
rfingers 7.12502
rthumb 7.60896 -34.9051
lclavicle 6.88913e-015 -7.95139e-016
lhumerus -40.2539 13.0436 79.7889
lradius 26.4372
lwrist -16.6113
lhand -11.7004 8.33194
lfingers 7.12502
lthumb 14.3457 37.8163
rfemur -17.5212 1.69977 21.7921
rtibia 33.8565
rfoot -17.3936 -15.8346
rtoes -8.93513
lfemur -20.789 -3.97515 -23.491
ltibia 38.9162
lfoot -21.1163 -6.61307
ltoes 10.6133
200
root 0.764002 17.8734 -15.0344 -172.3 -5.81964 -181.481
lowerback 3.05739 -0.104395 -4.36029
upperback -3.66489 -0.406554 1.33836
thorax -5.49188 -0.0302691 3.87825
lowerneck -15.1536 -2.29656 -3.12612
upperneck 9.53024 -3.11296 4.89759
head 5.47359 -1.29117 1.76653
rclavicle -1.59587e-014 -1.63003e-014
rhumerus -35.2524 -3.88668 -86.3431
rradius 31.949
rwrist 8.42008
rhand -18.4945 -5.25226
rfingers 7.12502
rthumb 7.79305 -35.0886
lclavicle -1.59587e-014 -1.63003e-014
lhumerus -40.1236 12.6589 80.1669
lradius 26.8665
lwrist -15.9325
lhand -11.8874 8.40648
lfingers 7.12502
lthumb 14.1655 37.9035
rfemur -17.4874 1.62235 21.7366
rtibia 33.8753
rfoot -17.5042 -15.7933
rtoes -8.98111
lfemur -20.7387 -3.92055 -23.5434
ltibia 38.8955
lfoot -21.1034 -6.73758
ltoes 10.8607
201
root 0.76223 17.8725 -15.0625 -172.235 -5.85467 -181.524
lowerback 3.05587 -0.115084 -4.37925
upperback -3.66906 -0.421933 1.34281
thorax -5.4939 -0.0369819 3.89484
lowerneck -15.2138 -2.26347 -3.09121
upperneck 9.55883 -3.08348 4.94556
head 5.49164 -1.27149 1.77836
rclavicle 8.58501e-015 2.06736e-014
rhumerus -35.3256 -4.47656 -86.0007
rradius 31.4168
rwrist 8.87363
rhand -18.3446 -5.46245
rfingers 7.12502
rthumb 7.9377 -35.2934
lclavicle 8.58501e-015 2.06736e-014
lhumerus -39.9836 12.2503 80.5574
lradius 27.307
lwrist -15.2287
lhand -12.0936 8.48588
lfingers 7.12502
lthumb 13.9668 37.9967
rfemur -17.4499 1.55176 21.692
rtibia 33.8851
rfoot -17.6038 -15.7637
rtoes -9.01943
lfemur -20.6922 -3.87146 -23.5846
ltibia 38.8783
lfoot -21.0912 -6.8622
ltoes 11.1012
202
root 0.76085 17.8719 -15.0901 -172.168 -5.89369 -181.555
lowerback 3.0552 -0.125879 -4.38242
upperback -3.67334 -0.436528 1.3492
thorax -5.49655 -0.0438994 3.90448
lowerneck -15.2814 -2.23461 -3.06042
upperneck 9.5977 -3.05895 4.99224
head 5.5144 -1.25423 1.78997
rclavicle 1.01877e-015 3.57812e-015
rhumerus -35.4172 -5.07395 -85.6521
rradius 30.9464
rwrist 9.21082
rhand -18.2311 -5.69176
rfingers 7.12502
rthumb 8.04728 -35.5185
lclavicle 1.01877e-015 3.57812e-015
lhumerus -39.8271 11.8225 80.9571
lradius 27.7502
lwrist -14.5268
lhand -12.3176 8.54879
lfingers 7.12502
lthumb 13.751 38.0744
rfemur -17.4136 1.50157 21.6623
rtibia 33.886
rfoot -17.691 -15.7557
rtoes -9.05158
lfemur -20.6564 -3.82869 -23.6112
ltibia 38.867
lfoot -21.086 -6.97758
ltoes 11.3027
203
root 0.759796 17.8715 -15.1173 -172.098 -5.93856 -181.577
lowerback 3.05206 -0.138019 -4.37177
upperback -3.67859 -0.452059 1.35754
thorax -5.49867 -0.0518447 3.90843
lowerneck -15.3462 -2.20883 -3.03513
upperneck 9.63759 -3.03734 5.03761
head 5.53721 -1.23866 1.80185
rclavicle 4.03781e-015 1.63003e-014
rhumerus -35.5293 -5.65461 -85.3048
rradius 30.5396
rwrist 9.43733
rhand -18.1492 -5.93626
rfingers 7.12502
rthumb 8.12638 -35.76
lclavicle 4.03781e-015 1.63003e-014
lhumerus -39.6573 11.3795 81.3624
lradius 28.1947
lwrist -13.8474
lhand -12.5491 8.59339
lfingers 7.12502
lthumb 13.5278 38.134
rfemur -17.3781 1.46726 21.6459
rtibia 33.8794
rfoot -17.7676 -15.7717
rtoes -9.08914
lfemur -20.6306 -3.79741 -23.6259
ltibia 38.8619
lfoot -21.091 -7.07848
ltoes 11.4629
204
root 0.759212 17.8711 -15.1443 -172.026 -5.98641 -181.596
lowerback 3.04701 -0.15014 -4.35638
upperback -3.68235 -0.467114 1.36635
thorax -5.49818 -0.0598151 3.91009
lowerneck -15.4132 -2.18787 -3.01355
upperneck 9.67806 -3.021 5.07996
head 5.56077 -1.22591 1.8129
rclavicle 1.24862e-014 -7.95139e-016
rhumerus -35.6526 -6.20153 -84.9671
rradius 30.1929
rwrist 9.55166
rhand -18.0895 -6.20613
rfingers 7.12502
rthumb 8.18394 -36.0276
lclavicle 1.24862e-014 -7.95139e-016
lhumerus -39.4689 10.9285 81.7686
lradius 28.6331
lwrist -13.2126
lhand -12.7843 8.60643
lfingers 7.12502
lthumb 13.3011 38.162
rfemur -17.3436 1.45095 21.6365
rtibia 33.868
rfoot -17.838 -15.811
rtoes -9.13248
lfemur -20.6122 -3.7806 -23.6357
ltibia 38.8618
lfoot -21.108 -7.15724
ltoes 11.5638
205
root 0.75917 17.8707 -15.1707 -171.948 -6.03557 -181.615
lowerback 3.04102 -0.162543 -4.34114
upperback -3.68843 -0.482702 1.37489
thorax -5.49955 -0.0680152 3.91163
lowerneck -15.4757 -2.16909 -2.99467
upperneck 9.71708 -3.00599 5.11537
head 5.58312 -1.21439 1.82212
rclavicle -1.88845e-014 4.37326e-015
rhumerus -35.7912 -6.70301 -84.643
rradius 29.9008
rwrist 9.57187
rhand -18.0594 -6.46885
rfingers 7.12502
rthumb 8.21304 -36.2892
lclavicle -1.88845e-014 4.37326e-015
lhumerus -39.2678 10.4739 82.1724
lradius 29.0678
lwrist -12.6304
lhand -13.0142 8.59291
lfingers 7.12502
lthumb 13.0795 38.1628
rfemur -17.3159 1.45084 21.6297
rtibia 33.8553
rfoot -17.9049 -15.871
rtoes -9.17668
lfemur -20.6039 -3.77682 -23.6453
ltibia 38.8641
lfoot -21.144 -7.21111
ltoes 11.6004
206
root 0.759597 17.8702 -15.1968 -171.865 -6.08913 -181.642
lowerback 3.03053 -0.177107 -4.33155
upperback -3.69554 -0.501514 1.38131
thorax -5.49912 -0.077696 3.91433
lowerneck -15.5247 -2.15243 -2.9757
upperneck 9.74855 -2.99285 5.14422
head 5.60082 -1.20447 1.82916
rclavicle -7.62836e-015 -2.0276e-014
rhumerus -35.9419 -7.15334 -84.3362
rradius 29.6589
rwrist 9.51607
rhand -18.0481 -6.71593
rfingers 7.12502
rthumb 8.22393 -36.5359
lclavicle -7.62836e-015 -2.0276e-014
lhumerus -39.0578 10.0212 82.5677
lradius 29.4978
lwrist -12.1081
lhand -13.2371 8.55296
lfingers 7.12502
lthumb 12.8646 38.1365
rfemur -17.293 1.45679 21.6192
rtibia 33.8443
rfoot -17.9716 -15.9467
rtoes -9.23254
lfemur -20.6008 -3.78544 -23.6612
ltibia 38.8662
lfoot -21.1805 -7.25071
ltoes 11.623
207
root 0.760299 17.8694 -15.2227 -171.777 -6.14529 -181.676
lowerback 3.0172 -0.19382 -4.32668
upperback -3.70419 -0.523594 1.385
thorax -5.49838 -0.0888851 3.91705
lowerneck -15.5648 -2.13607 -2.95415
upperneck 9.77681 -2.97899 5.16186
head 5.61577 -1.19499 1.83236
rclavicle -2.72087e-015 -6.36111e-015
rhumerus -36.1009 -7.54605 -84.0498
rradius 29.4606
rwrist 9.40832
rhand -18.057 -6.9366
rfingers 7.12502
rthumb 8.21531 -36.7569
lclavicle -2.72087e-015 -6.36111e-015
lhumerus -38.844 9.57256 82.9541
lradius 29.9303
lwrist -11.6408
lhand -13.4481 8.49208
lfingers 7.12502
lthumb 12.6613 38.0883
rfemur -17.2759 1.45611 21.6021
rtibia 33.8368
rfoot -18.0428 -16.0247
rtoes -9.30309
lfemur -20.6009 -3.80357 -23.6861
ltibia 38.8662
lfoot -21.222 -7.27628
ltoes 11.6287
208
root 0.761364 17.8682 -15.2482 -171.688 -6.20067 -181.715
lowerback 3.00568 -0.211367 -4.32415
upperback -3.71465 -0.547137 1.38796
thorax -5.50045 -0.100644 3.92049
lowerneck -15.5953 -2.12024 -2.93673
upperneck 9.80255 -2.96414 5.17421
head 5.62828 -1.18566 1.83472
rclavicle -3.97569e-015 2.78299e-014
rhumerus -36.2688 -7.89723 -83.7769
rradius 29.305
rwrist 9.28565
rhand -18.0812 -7.12154
rfingers 7.12502
rthumb 8.192 -36.9427
lclavicle -3.97569e-015 2.78299e-014
lhumerus -38.6287 9.13578 83.3288
lradius 30.3643
lwrist -11.2282
lhand -13.6423 8.41761
lfingers 7.12502
lthumb 12.474 38.0253
rfemur -17.2644 1.45417 21.5826
rtibia 33.8329
rfoot -18.1186 -16.1033
rtoes -9.38087
lfemur -20.6025 -3.82974 -23.7144
ltibia 38.8632
lfoot -21.2692 -7.2895
ltoes 11.6314
209
root 0.762819 17.8667 -15.2733 -171.596 -6.25623 -181.754
lowerback 2.99542 -0.230044 -4.31948
upperback -3.72962 -0.572438 1.39089
thorax -5.50782 -0.113242 3.92288
lowerneck -15.6021 -2.10532 -2.91701
upperneck 9.81844 -2.94927 5.17517
head 5.63353 -1.17744 1.83322
rclavicle 8.58501e-015 -5.96354e-015
rhumerus -36.4479 -8.2051 -83.5194
rradius 29.1883
rwrist 9.16192
rhand -18.1172 -7.2742
rfingers 7.12502
rthumb 8.15718 -37.0967
lclavicle 8.58501e-015 -5.96354e-015
lhumerus -38.4269 8.70492 83.6905
lradius 30.811
lwrist -10.8563
lhand -13.8145 8.34533
lfingers 7.12502
lthumb 12.3079 37.9631
rfemur -17.2576 1.44813 21.5651
rtibia 33.832
rfoot -18.2012 -16.1767
rtoes -9.45794
lfemur -20.6057 -3.85941 -23.7406
ltibia 38.8571
lfoot -21.3252 -7.29587
ltoes 11.6273
